<mxfile host="app.diagrams.net" modified="2023-06-08T17:39:14.781Z" agent="Mozilla/5.0 (Macintosh; Intel Mac OS X 10.15; rv:109.0) Gecko/20100101 Firefox/113.0" etag="1Vm5T8qQNrSEUiBWgTp2" version="21.3.7" type="device">
  <diagram id="C5RBs43oDa-KdzZeNtuy" name="Page-1">
    <mxGraphModel dx="954" dy="642" grid="1" gridSize="10" guides="1" tooltips="1" connect="1" arrows="1" fold="1" page="1" pageScale="1" pageWidth="827" pageHeight="1169" math="0" shadow="0">
      <root>
        <mxCell id="WIyWlLk6GJQsqaUBKTNV-0" />
        <mxCell id="WIyWlLk6GJQsqaUBKTNV-1" parent="WIyWlLk6GJQsqaUBKTNV-0" />
        <mxCell id="JqGhpJFtYQSGRhR72Ikp-0" value="&lt;div&gt;&lt;font color=&quot;#000000&quot;&gt;start&lt;/font&gt;&lt;/div&gt;&lt;div&gt;&lt;font color=&quot;#000000&quot;&gt;sum = 0&lt;br&gt;&lt;/font&gt;&lt;/div&gt;&lt;div&gt;&lt;font color=&quot;#000000&quot;&gt;&lt;br&gt;&lt;/font&gt;&lt;/div&gt;&lt;div&gt;&lt;font color=&quot;#000000&quot;&gt;int[] array {2, 5, 13, 7, 6, 4&lt;/font&gt;&lt;font color=&quot;#000000&quot;&gt;}&lt;br&gt;&lt;/font&gt;&lt;/div&gt;" style="rounded=0;whiteSpace=wrap;html=1;fillColor=#d5e8d4;strokeColor=#82b366;" vertex="1" parent="WIyWlLk6GJQsqaUBKTNV-1">
          <mxGeometry x="294" y="200" width="156" height="80" as="geometry" />
        </mxCell>
        <mxCell id="JqGhpJFtYQSGRhR72Ikp-1" value="&lt;div&gt;&lt;font color=&quot;#000000&quot;&gt;print(sum)&lt;/font&gt;&lt;/div&gt;&lt;div&gt;&lt;font color=&quot;#000000&quot;&gt;end&lt;br&gt;&lt;/font&gt;&lt;/div&gt;" style="rounded=1;whiteSpace=wrap;html=1;fillColor=#f8cecc;strokeColor=#b85450;" vertex="1" parent="WIyWlLk6GJQsqaUBKTNV-1">
          <mxGeometry x="300" y="585" width="120" height="60" as="geometry" />
        </mxCell>
        <mxCell id="JqGhpJFtYQSGRhR72Ikp-5" style="edgeStyle=orthogonalEdgeStyle;rounded=0;orthogonalLoop=1;jettySize=auto;html=1;" edge="1" parent="WIyWlLk6GJQsqaUBKTNV-1" source="JqGhpJFtYQSGRhR72Ikp-4">
          <mxGeometry relative="1" as="geometry">
            <mxPoint x="520" y="480" as="targetPoint" />
          </mxGeometry>
        </mxCell>
        <mxCell id="JqGhpJFtYQSGRhR72Ikp-11" style="edgeStyle=orthogonalEdgeStyle;rounded=0;orthogonalLoop=1;jettySize=auto;html=1;" edge="1" parent="WIyWlLk6GJQsqaUBKTNV-1" source="JqGhpJFtYQSGRhR72Ikp-4" target="JqGhpJFtYQSGRhR72Ikp-13">
          <mxGeometry relative="1" as="geometry">
            <mxPoint x="200" y="480" as="targetPoint" />
          </mxGeometry>
        </mxCell>
        <mxCell id="JqGhpJFtYQSGRhR72Ikp-4" value="&lt;font color=&quot;#000000&quot;&gt;for(i = 0; i &amp;lt; len(array);i++)&lt;/font&gt;" style="rhombus;whiteSpace=wrap;html=1;fillColor=#fff2cc;strokeColor=#d6b656;" vertex="1" parent="WIyWlLk6GJQsqaUBKTNV-1">
          <mxGeometry x="286" y="310" width="172" height="110" as="geometry" />
        </mxCell>
        <mxCell id="JqGhpJFtYQSGRhR72Ikp-6" value="&lt;font color=&quot;#000000&quot;&gt;yes&lt;/font&gt;" style="ellipse;whiteSpace=wrap;html=1;aspect=fixed;fillColor=#d5e8d4;strokeColor=#82b366;" vertex="1" parent="WIyWlLk6GJQsqaUBKTNV-1">
          <mxGeometry x="510" y="380" width="30" height="30" as="geometry" />
        </mxCell>
        <mxCell id="JqGhpJFtYQSGRhR72Ikp-10" style="edgeStyle=orthogonalEdgeStyle;rounded=0;orthogonalLoop=1;jettySize=auto;html=1;entryX=0.5;entryY=1;entryDx=0;entryDy=0;" edge="1" parent="WIyWlLk6GJQsqaUBKTNV-1" source="JqGhpJFtYQSGRhR72Ikp-9" target="JqGhpJFtYQSGRhR72Ikp-4">
          <mxGeometry relative="1" as="geometry">
            <mxPoint x="360" y="490" as="targetPoint" />
            <Array as="points">
              <mxPoint x="372" y="510" />
            </Array>
          </mxGeometry>
        </mxCell>
        <mxCell id="JqGhpJFtYQSGRhR72Ikp-9" value="&lt;font color=&quot;#000000&quot;&gt;sum += array[i]&lt;br&gt;&lt;/font&gt;" style="shape=parallelogram;perimeter=parallelogramPerimeter;whiteSpace=wrap;html=1;fixedSize=1;fillColor=#ffe6cc;strokeColor=#d79b00;" vertex="1" parent="WIyWlLk6GJQsqaUBKTNV-1">
          <mxGeometry x="458" y="480" width="120" height="60" as="geometry" />
        </mxCell>
        <mxCell id="JqGhpJFtYQSGRhR72Ikp-12" value="&lt;font color=&quot;#000000&quot;&gt;no&lt;/font&gt;" style="ellipse;whiteSpace=wrap;html=1;aspect=fixed;fillColor=#f8cecc;strokeColor=#b85450;" vertex="1" parent="WIyWlLk6GJQsqaUBKTNV-1">
          <mxGeometry x="190" y="380" width="30" height="30" as="geometry" />
        </mxCell>
        <mxCell id="JqGhpJFtYQSGRhR72Ikp-15" style="edgeStyle=orthogonalEdgeStyle;rounded=0;orthogonalLoop=1;jettySize=auto;html=1;entryX=0;entryY=0.5;entryDx=0;entryDy=0;" edge="1" parent="WIyWlLk6GJQsqaUBKTNV-1" source="JqGhpJFtYQSGRhR72Ikp-13" target="JqGhpJFtYQSGRhR72Ikp-1">
          <mxGeometry relative="1" as="geometry">
            <mxPoint x="200" y="640" as="targetPoint" />
            <Array as="points">
              <mxPoint x="200" y="615" />
            </Array>
          </mxGeometry>
        </mxCell>
        <mxCell id="JqGhpJFtYQSGRhR72Ikp-13" value="&lt;font color=&quot;#000000&quot;&gt;sum /= len(array)&lt;br&gt;&lt;/font&gt;" style="shape=parallelogram;perimeter=parallelogramPerimeter;whiteSpace=wrap;html=1;fixedSize=1;fillColor=#ffe6cc;strokeColor=#d79b00;" vertex="1" parent="WIyWlLk6GJQsqaUBKTNV-1">
          <mxGeometry x="140" y="480" width="120" height="60" as="geometry" />
        </mxCell>
      </root>
    </mxGraphModel>
  </diagram>
</mxfile>
